<svg xmlns="http://www.w3.org/2000/svg" version="1.1" xmlns:xlink="http://www.w3.org/1999/xlink" width="200" height="200"><svg xmlns="http://www.w3.org/2000/svg" version="1.1" xmlns:xlink="http://www.w3.org/1999/xlink" viewBox="0 0 200 200"><rect width="200" height="200" fill="url('#gradient')"></rect><defs><linearGradient id="SvgjsLinearGradient1001" gradientTransform="rotate(97 0.5 0.5)"><stop offset="0%" stop-color="#ceaa96"></stop><stop offset="100%" stop-color="#8fa983"></stop></linearGradient></defs><g><g fill="#445272" transform="matrix(2.3585412667946257,0,0,2.3585412667946257,33.51424573711378,116.76181007868497)" stroke="#c8512e" stroke-width="0"><path d="M10.11-14.22L12.09-5.30L13.72-14.22L17.12-14.22L14.10 0L10.55 0L8.64-8.11L6.78 0L3.23 0L0.21-14.22L3.61-14.22L5.24-5.30L7.20-14.22L10.11-14.22ZM30.34-14.22L30.34 0L26.93 0L26.93-5.94L21.88-5.94L21.88 0L18.46 0L18.46-14.22L21.88-14.22L21.88-8.57L26.93-8.57L26.93-14.22L30.34-14.22ZM38.28 0L32.51 0L32.51-14.22L37.62-14.22Q40.36-14.22 41.79-13.21Q43.22-12.21 43.22-10.29L43.22-10.29Q43.22-9.19 42.71-8.41Q42.21-7.63 41.22-7.26L41.22-7.26Q42.33-6.96 42.93-6.16Q43.53-5.36 43.53-4.21L43.53-4.21Q43.53-2.12 42.20-1.07Q40.88-0.02 38.28 0L38.28 0ZM38.34-6.04L35.94-6.04L35.94-2.64L38.18-2.64Q39.11-2.64 39.61-3.06Q40.11-3.49 40.11-4.26L40.11-4.26Q40.11-6.04 38.34-6.04L38.34-6.04ZM35.94-11.57L35.94-8.29L37.72-8.29Q38.85-8.30 39.33-8.70Q39.80-9.10 39.80-9.88L39.80-9.88Q39.80-10.78 39.29-11.18Q38.77-11.57 37.62-11.57L37.62-11.57L35.94-11.57ZM52.74-3.78L52.74-3.78Q52.74-4.53 52.21-4.95Q51.68-5.37 50.34-5.82Q49.00-6.27 48.15-6.69L48.15-6.69Q45.39-8.05 45.39-10.42L45.39-10.42Q45.39-11.60 46.08-12.50Q46.77-13.41 48.03-13.91Q49.29-14.41 50.86-14.41L50.86-14.41Q52.39-14.41 53.61-13.87Q54.82-13.32 55.50-12.31Q56.17-11.30 56.17-10L56.17-10L52.75-10Q52.75-10.87 52.22-11.35Q51.69-11.83 50.78-11.83L50.78-11.83Q49.86-11.83 49.33-11.42Q48.80-11.02 48.80-10.39L48.80-10.39Q48.80-9.84 49.38-9.40Q49.97-8.96 51.45-8.48Q52.92-8.01 53.87-7.46L53.87-7.46Q56.17-6.13 56.17-3.80L56.17-3.80Q56.17-1.93 54.77-0.87Q53.36 0.20 50.91 0.20L50.91 0.20Q49.18 0.20 47.78-0.42Q46.38-1.04 45.67-2.12Q44.96-3.20 44.96-4.61L44.96-4.61L48.40-4.61Q48.40-3.47 48.99-2.92Q49.58-2.38 50.91-2.38L50.91-2.38Q51.76-2.38 52.25-2.75Q52.74-3.12 52.74-3.78Z"></path></g></g></svg><style>@media (prefers-color-scheme: light) { :root { filter: none; } }
@media (prefers-color-scheme: dark) { :root { filter: none; } }
</style></svg>